<svg width="36" height="29" viewBox="0 0 36 29" fill="none" xmlns="http://www.w3.org/2000/svg">
    <path fill="currentColor" fill-rule="evenodd" clip-rule="evenodd" d="M35.1223 11.9068C34.882 12.1403 34.5559 12.2737 34.2125 12.2737C32.9422 12.2737 31.9122 13.2743 31.9122 14.4917C31.9122 15.7174 32.9302 16.713 34.1885 16.7263C34.8975 16.733 35.5 17.2133 35.5 17.902V22.1795C35.5 25.78 32.4959 28.7 28.788 28.7H23.1917C22.6132 28.7 22.1446 28.2447 22.1446 27.6828V24.0806C22.1446 23.3802 21.5781 22.8299 20.8571 22.8299C20.1533 22.8299 19.5696 23.3802 19.5696 24.0806V27.6828C19.5696 28.2447 19.101 28.7 18.5242 28.7H6.71204C3.02128 28.7 0 25.7816 0 22.1795V17.902C0 17.2133 0.602539 16.733 1.31151 16.7263C2.57152 16.713 3.58777 15.7174 3.58777 14.4917C3.58777 13.3077 2.59212 12.4071 1.28748 12.4071C0.944149 12.4071 0.617988 12.2737 0.37766 12.0402C0.137331 11.8068 0 11.4899 0 11.1564V6.83719C0 3.24174 3.02814 0.300018 6.72921 0.300018H18.5242C19.101 0.300018 19.5696 0.755285 19.5696 1.31728V5.58645C19.5696 6.27019 20.1533 6.83719 20.8571 6.83719C21.5781 6.83719 22.1446 6.27019 22.1446 5.58645V1.31728C22.1446 0.755285 22.6132 0.300018 23.1917 0.300018H28.788C32.4959 0.300018 35.5 3.2184 35.5 6.82051V11.023C35.5 11.3565 35.3627 11.6734 35.1223 11.9068ZM20.8571 19.5947C21.5781 19.5947 22.1446 19.0277 22.1446 18.3439V11.6734C22.1446 10.9896 21.5781 10.4226 20.8571 10.4226C20.1533 10.4226 19.5696 10.9896 19.5696 11.6734V18.3439C19.5696 19.0277 20.1533 19.5947 20.8571 19.5947Z"/>
</svg>
